<svg width="25" height="25" viewBox="0 0 25 25" fill="none" xmlns="http://www.w3.org/2000/svg">
    <path d="M3.21 0.000793457H21.7915C23.5568 0.000793457 25 1.44446 25 3.20979V21.7913C25 23.5561 23.5568 24.9988 21.7915 24.9988H3.21C1.44467 24.9988 0 23.556 0 21.7913V3.20979C0 1.44446 1.44467 0.000793457 3.21 0.000793457ZM18.2122 2.77721C17.5923 2.77721 17.0868 3.28479 17.0868 3.90429V6.59713C17.0868 7.21688 17.5923 7.72329 18.2122 7.72329H21.0374C21.6563 7.72329 22.1629 7.21688 22.1629 6.59713V3.90429C22.1629 3.28479 21.6563 2.77721 21.0374 2.77721H18.2122ZM22.1737 10.5721H19.974C20.1826 11.2534 20.2957 11.9718 20.2957 12.7187C20.2957 16.8755 16.8152 20.247 12.5235 20.247C8.23292 20.247 4.75233 16.8755 4.75233 12.7187C4.75233 11.9718 4.8665 11.2534 5.07408 10.5721H2.77917V21.1331C2.77917 21.68 3.22575 22.125 3.77217 22.125H21.1811C21.728 22.125 22.1737 21.68 22.1737 21.1331V10.5721ZM12.5236 7.58129C9.75192 7.58129 7.50358 9.75863 7.50358 12.447C7.50358 15.1325 9.75192 17.3115 12.5236 17.3115C15.2968 17.3115 17.5452 15.1325 17.5452 12.447C17.5452 9.75854 15.2968 7.58129 12.5236 7.58129Z" fill="white"/>
    </svg>   