<svg width="18" height="18" viewBox="0 0 18 18" fill="none"
                                    xmlns="http://www.w3.org/2000/svg">
                                    <path
                                        d="M4.18993 5.80335H0.576406C0.416032 5.80335 0.286083 5.93364 0.286083 6.09432V17.7287C0.286083 17.8894 0.416032 18.0197 0.576406 18.0197H4.18993C4.35031 18.0197 4.48026 17.8894 4.48026 17.7287V6.09432C4.48026 5.93364 4.35031 5.80335 4.18993 5.80335Z"
                                        fill="black" />
                                    <path
                                        d="M2.38447 0.0197983C1.06966 0.0197983 0 1.09066 0 2.40693C0 3.72377 1.06966 4.79504 2.38447 4.79504C3.69824 4.79504 4.76703 3.72371 4.76703 2.40693C4.76709 1.09066 3.69824 0.0197983 2.38447 0.0197983Z"
                                        fill="black" />
                                    <path
                                        d="M13.3814 5.51428C11.9301 5.51428 10.8572 6.13957 10.2065 6.85004V6.09441C10.2065 5.93374 10.0765 5.80344 9.9162 5.80344H6.45558C6.29521 5.80344 6.16527 5.93374 6.16527 6.09441V17.7288C6.16527 17.8895 6.29521 18.0197 6.45558 18.0197H10.0612C10.2216 18.0197 10.3515 17.8895 10.3515 17.7288V11.9725C10.3515 10.0327 10.8773 9.27706 12.2265 9.27706C13.6958 9.27706 13.8126 10.4885 13.8126 12.0722V17.7289C13.8126 17.8896 13.9425 18.0198 14.1029 18.0198H17.7099C17.8703 18.0198 18.0002 17.8896 18.0002 17.7289V11.3472C18.0002 8.46288 17.4514 5.51428 13.3814 5.51428Z"
                                        fill="black" />
                                </svg>