<svg width="25" height="25" viewBox="0 0 25 25" fill="none" xmlns="http://www.w3.org/2000/svg">
    <g clip-path="url(#clip0)">
    <path d="M5.81935 8.06021H0.800565C0.577823 8.06021 0.397339 8.24117 0.397339 8.46433V24.6232C0.397339 24.8464 0.577823 25.0273 0.800565 25.0273H5.81935C6.0421 25.0273 6.22258 24.8464 6.22258 24.6232V8.46433C6.22258 8.24117 6.0421 8.06021 5.81935 8.06021Z" fill="white"/>
    <path d="M3.31177 0.0274963C1.48564 0.0274963 0 1.51481 0 3.34295C0 5.1719 1.48564 6.65978 3.31177 6.65978C5.13645 6.65978 6.62088 5.17182 6.62088 3.34295C6.62096 1.51481 5.13645 0.0274963 3.31177 0.0274963Z" fill="white"/>
    <path d="M18.5853 7.65872C16.5696 7.65872 15.0795 8.52717 14.1757 9.51394V8.46445C14.1757 8.2413 13.9952 8.06033 13.7725 8.06033H8.96609C8.74335 8.06033 8.56287 8.2413 8.56287 8.46445V24.6233C8.56287 24.8465 8.74335 25.0274 8.96609 25.0274H13.9739C14.1967 25.0274 14.3771 24.8465 14.3771 24.6233V16.6284C14.3771 13.9343 15.1073 12.8848 16.9812 12.8848C19.022 12.8848 19.1842 14.5673 19.1842 16.767V24.6234C19.1842 24.8466 19.3646 25.0275 19.5874 25.0275H24.5971C24.8198 25.0275 25.0003 24.8466 25.0003 24.6234V15.76C25.0003 11.754 24.2381 7.65872 18.5853 7.65872Z" fill="white"/>
    </g>
    <defs>
    <clipPath id="clip0">
    <rect width="25" height="25" fill="white"/>
    </clipPath>
    </defs>
    </svg>