<svg width="19" height="25" viewBox="0 0 19 25" fill="none" xmlns="http://www.w3.org/2000/svg">
    <path d="M9.375 0C4.20565 0 0 4.14405 0 9.23786C0 14.1694 8.54669 24.3542 8.91051 24.7853C9.02528 24.9213 9.19547 25 9.375 25C9.55445 25 9.72472 24.9214 9.83949 24.7853C10.2034 24.3541 18.75 14.1694 18.75 9.23786C18.75 4.14405 14.5444 0 9.375 0ZM9.375 23.4602C8.61717 22.5277 7.04263 20.541 5.48452 18.2699C2.68692 14.1922 1.20815 11.069 1.20815 9.23786C1.20815 4.80048 4.87182 1.19048 9.375 1.19048C13.8782 1.19048 17.5419 4.80048 17.5419 9.23786C17.5419 11.0689 16.0632 14.1921 13.2655 18.2699C11.7073 20.541 10.1328 22.5277 9.375 23.4602Z" fill="white" />
    <path d="M12.4484 16.9806C12.172 16.7966 11.7964 16.8683 11.6097 17.1407C10.7946 18.3298 9.88138 19.5759 8.89555 20.8447C8.69274 21.1057 8.743 21.4793 9.00791 21.6791C9.11744 21.7618 9.24655 21.8018 9.37469 21.8018C9.55624 21.8018 9.73584 21.7214 9.85472 21.5684C10.8551 20.2811 11.7823 19.0156 12.6108 17.8071C12.7976 17.5347 12.7249 17.1647 12.4484 16.9806Z" fill="white" />
    <path d="M9.37507 4.56351C6.64376 4.56351 4.42165 6.75311 4.42165 9.44446C4.42165 12.1358 6.64376 14.3254 9.37507 14.3254C12.1064 14.3254 14.3285 12.1358 14.3285 9.44446C14.3285 6.75311 12.1064 4.56351 9.37507 4.56351ZM9.37507 13.1349C7.30994 13.1349 5.6298 11.4794 5.6298 9.44446C5.6298 7.40954 7.30994 5.75398 9.37507 5.75398C11.4403 5.75398 13.1203 7.40954 13.1203 9.44446C13.1203 11.4794 11.4403 13.1349 9.37507 13.1349Z" fill="white" />
</svg>