<svg width="25" height="17" viewBox="0 0 25 17" fill="none" xmlns="http://www.w3.org/2000/svg">
    <g clip-path="url(#clip0)">
    <path d="M21.9463 0H3.0537C1.36996 0 0 1.35203 0 3.01373V13.7363C0 15.398 1.36996 16.75 3.0537 16.75H21.9463C23.63 16.75 25 15.398 25 13.7363V3.01406C25.0003 1.35203 23.6304 0 21.9463 0ZM20.4542 1.96612L12.5 7.02362L4.54585 1.96612H20.4542ZM21.9463 14.7842H3.0537C2.46832 14.7842 1.99219 14.314 1.99219 13.7366V3.06976L11.8854 9.34823C11.8987 9.35642 11.913 9.36199 11.9266 9.36953C11.9409 9.37739 11.9555 9.38493 11.9701 9.39214C12.0468 9.43113 12.1258 9.46259 12.2065 9.48323C12.2148 9.48553 12.2231 9.48651 12.2314 9.48848C12.32 9.50912 12.4097 9.5219 12.4993 9.5219C12.4997 9.5219 12.5 9.5219 12.5 9.5219C12.5007 9.5219 12.501 9.5219 12.5013 9.5219C12.591 9.5219 12.6806 9.50945 12.7693 9.48848C12.7776 9.48651 12.7859 9.48553 12.7942 9.48323C12.8749 9.46259 12.9536 9.43113 13.0306 9.39214C13.0452 9.38493 13.0598 9.37739 13.0741 9.36953C13.0877 9.36199 13.102 9.35642 13.1153 9.34823L23.0085 3.06976V13.7363C23.0081 14.314 22.5317 14.7842 21.9463 14.7842Z" fill="white"/>
    </g>
    <defs>
    <clipPath id="clip0">
    <rect width="25" height="16.75" fill="white"/>
    </clipPath>
    </defs>
    </svg>