<svg width="25" height="25" viewBox="0 0 25 25" fill="none" xmlns="http://www.w3.org/2000/svg">
    <path d="M24.5833 15.9436C23.0459 15.9436 21.7948 14.6496 21.7948 13.0595C21.7948 12.8212 21.6085 12.6286 21.3781 12.6286C21.1477 12.6286 20.9615 12.8212 20.9615 13.0595C20.9615 15.1253 22.586 16.8054 24.5833 16.8054C24.8137 16.8054 25 16.6128 25 16.3745C25 16.1362 24.8133 15.9436 24.5833 15.9436Z" fill="white"/>
    <path d="M24.2725 14.9344C24.5029 14.9344 24.6892 14.7418 24.6892 14.5035C24.6892 14.2652 24.5029 14.0726 24.2725 14.0726C23.9034 14.0726 23.6038 13.7624 23.6038 13.381C23.6038 13.1427 23.4176 12.9501 23.1872 12.9501C22.9568 12.9501 22.7706 13.1427 22.7706 13.381C22.7701 14.2377 23.4438 14.9344 24.2725 14.9344Z" fill="white"/>
    <path d="M8.33439 0.861816C9.87221 0.861816 11.123 2.15583 11.123 3.74589C11.123 3.98418 11.3096 4.17679 11.5396 4.17679C11.7696 4.17679 11.9562 3.98418 11.9562 3.74589C11.9562 1.68011 10.3313 0 8.33439 0C8.1044 0 7.91775 0.192616 7.91775 0.430908C7.91775 0.6692 8.10399 0.861816 8.33439 0.861816Z" fill="white"/>
    <path d="M8.22852 2.30191C8.22852 2.5402 8.41517 2.73282 8.64516 2.73282C9.01388 2.73282 9.31345 3.04307 9.31345 3.42443C9.31345 3.66272 9.5001 3.85533 9.73009 3.85533C9.96007 3.85533 10.1467 3.66272 10.1467 3.42443C10.1467 2.56778 9.47302 1.871 8.64516 1.871C8.41517 1.871 8.22852 2.06362 8.22852 2.30191Z" fill="white"/>
    <path d="M18.364 15.8992C17.8324 15.5855 17.282 15.4864 16.8137 15.6209C16.4621 15.7217 16.1754 15.9518 15.9821 16.2871C15.5571 16.8128 15.0296 17.4272 14.9022 17.5225C13.916 18.2136 13.1314 18.1322 12.2798 17.2514L7.49428 12.3025C6.64225 11.4212 6.56392 10.6098 7.23138 9.59161C7.32471 9.45803 7.91884 8.91293 8.42714 8.47297C8.75129 8.27303 8.97377 7.97656 9.07127 7.61288C9.20084 7.12897 9.10543 6.55974 8.79962 6.00516C8.72754 5.87761 7.01181 2.87246 5.43108 2.00762C4.62863 1.56853 3.65827 1.71935 3.01623 2.38338L1.95838 3.47616C0.28598 5.20582 -0.319399 7.16603 0.158071 9.30204C0.55638 11.0826 1.71714 12.9773 3.60869 14.9331L9.73539 21.2701C12.1361 23.753 14.4259 25 16.5258 25C18.0678 25 19.5077 24.3269 20.8135 22.9769L21.8705 21.8837C22.5125 21.2197 22.6588 20.2161 22.2338 19.3862C21.3972 17.7509 18.4919 15.9768 18.364 15.8992ZM21.2813 21.2744L20.2243 22.3676C17.4874 25.1974 14.1568 24.6234 10.3249 20.6608L4.19782 14.3238C2.41835 12.4834 1.33258 10.7283 0.970104 9.10813C0.555547 7.25479 1.07176 5.6126 2.54751 4.08589L3.60452 2.99268C3.84076 2.74879 4.15157 2.62124 4.46697 2.62124C4.66154 2.62124 4.8582 2.6695 5.04027 2.76947C6.41227 3.52054 8.06341 6.41237 8.07758 6.43693C8.26465 6.77605 8.3359 7.12983 8.26798 7.3832C8.22632 7.53833 8.13299 7.6564 7.983 7.74344L7.92051 7.78826C7.56511 8.09506 6.71933 8.83709 6.54226 9.10727C6.28727 9.49681 6.11812 9.87946 6.02937 10.2556C5.73314 9.64461 5.49357 8.93706 5.41483 8.15237C5.39108 7.91624 5.18609 7.74948 4.95736 7.768C4.72862 7.793 4.56196 8.00457 4.58571 8.24157C4.88653 11.2377 7.1393 13.188 7.23513 13.2694C7.24555 13.278 7.25763 13.2815 7.26846 13.2888L11.6903 17.862C11.709 17.8814 11.7286 17.8987 11.7474 17.9176C11.7619 17.9396 11.7715 17.9642 11.7907 17.984C11.8694 18.0646 13.7506 19.9519 16.6233 20.2605C16.6379 20.2618 16.6525 20.2626 16.6666 20.2626C16.8774 20.2626 17.0583 20.0976 17.0808 19.8765C17.1045 19.6395 16.9383 19.428 16.7091 19.403C15.8283 19.3086 15.048 19.0414 14.3976 18.7316C14.7163 18.6325 15.0405 18.4679 15.3692 18.2378C15.6309 18.0542 16.3483 17.1799 16.6445 16.8123L16.6879 16.7473C16.772 16.5926 16.8862 16.4961 17.0362 16.4525C17.2812 16.384 17.6232 16.456 17.947 16.6464C17.9749 16.6637 20.771 18.3714 21.4972 19.7903C21.7496 20.2829 21.663 20.8797 21.2813 21.2744Z" fill="white"/>
    </svg>